<svg width="24" height="25" viewBox="0 0 24 25" fill="none" xmlns="http://www.w3.org/2000/svg">
<path fill-rule="evenodd" clip-rule="evenodd" d="M20.4 3.95C18.15 1.7 15.15 0.5 12 0.5C5.4 0.5 0 5.9 0 12.5C0 14.6 0.600009 16.7 1.65001 18.5L0 24.5L6.30002 22.85C8.10002 23.75 10.05 24.35 12 24.35C18.6 24.35 24 18.95 24 12.35C24 9.2 22.65 6.2 20.4 3.95ZM12 22.4C10.2 22.4 8.40001 21.95 6.90001 21.05L6.59999 20.9L2.84999 21.95L3.90001 18.35L3.59999 17.9C2.54999 16.25 2.09999 14.45 2.09999 12.65C2.09999 7.25 6.6 2.75 12 2.75C14.7 2.75 17.1 3.8 19.05 5.6C21 7.55 21.9 9.95 21.9 12.65C21.9 17.9 17.55 22.4 12 22.4ZM17.4 14.9C17.1 14.75 15.6 14 15.3 14C15 13.85 14.85 13.85 14.7 14.15C14.55 14.45 13.95 15.05 13.8 15.35C13.65 15.5 13.5 15.5 13.2 15.5C12.9 15.35 12 15.05 10.8 14C9.90002 13.25 9.30001 12.2 9.15001 11.9C9.00001 11.6 9.15002 11.45 9.30002 11.3C9.45002 11.15 9.6 11 9.75 10.85C9.9 10.7 9.90002 10.55 10.05 10.4C10.2 10.25 10.05 10.1 10.05 9.95C10.05 9.8 9.45001 8.3 9.15001 7.7C9.00001 7.25 8.70002 7.25 8.55002 7.25C8.40002 7.25 8.24998 7.25 7.94998 7.25C7.79998 7.25 7.49998 7.25 7.19998 7.55C6.89998 7.85 6.15001 8.6 6.15001 10.1C6.15001 11.6 7.19999 12.95 7.34999 13.25C7.49999 13.4 9.44998 16.55 12.45 17.75C15 18.8 15.45 18.5 16.05 18.5C16.65 18.5 17.85 17.75 18 17.15C18.3 16.4 18.3 15.8 18.15 15.8C18 15.05 17.7 15.05 17.4 14.9Z" fill="white"/>
</svg>
